<?xml version="1.0" standalone="no"?>
<!DOCTYPE svg PUBLIC "-//W3C//DTD SVG 20010904//EN"
 "http://www.w3.org/TR/2001/REC-SVG-20010904/DTD/svg10.dtd">
<svg version="1.0" xmlns="http://www.w3.org/2000/svg"
 width="300.000000pt" height="300.000000pt" viewBox="0 0 300.000000 300.000000"
 preserveAspectRatio="xMidYMid meet">
<metadata>
Created by potrace 1.14, written by Peter Selinger 2001-2017
</metadata>
<g transform="translate(0.000000,300.000000) scale(0.100000,-0.100000)"
fill="#000000" stroke="none">
<path d="M357 2985 c-4 -10 -18 -13 -44 -11 -24 2 -45 -2 -55 -12 -10 -8 -31
-15 -48 -14 -20 0 -30 -4 -30 -14 0 -8 -4 -13 -9 -10 -5 3 -11 0 -13 -7 -3 -6
-4 -146 -4 -310 1 -191 -3 -297 -9 -298 -5 -1 -13 -1 -16 -1 -3 1 -5 -14 -3
-32 3 -25 -2 -38 -25 -60 -16 -16 -27 -34 -25 -41 3 -7 -2 -15 -10 -18 -9 -4
-16 -13 -16 -20 0 -9 -9 -13 -25 -11 l-25 2 2 -666 3 -667 370 -1 c204 -1 376
-2 384 -3 9 -1 12 -11 9 -31 -3 -17 -1 -30 3 -30 5 0 6 -7 3 -14 -9 -22 -10
-146 -2 -146 4 0 4 -9 0 -19 -4 -11 -5 -47 -4 -80 l4 -61 393 0 c305 0 394 -3
397 -12 2 -7 4 -100 3 -205 l-1 -193 718 0 718 0 0 664 0 663 -30 23 c-16 12
-27 28 -23 34 3 6 3 8 -2 4 -12 -11 -55 40 -49 56 3 9 -3 17 -17 21 -12 4 -18
10 -13 14 5 3 8 15 8 26 -1 11 -2 30 -3 43 -1 13 -5 21 -10 18 -5 -3 -11 0
-13 7 -2 6 -3 139 -3 295 1 247 -1 282 -15 283 -8 1 -29 1 -47 1 -18 0 -34 6
-37 14 -4 10 -17 13 -41 11 -19 -2 -35 0 -35 5 0 5 -5 6 -11 3 -6 -4 -16 1
-23 10 -12 17 -13 17 -19 1 -4 -10 -12 -14 -18 -10 -7 4 -9 3 -6 -3 4 -6 -14
-29 -38 -51 -25 -22 -45 -46 -45 -51 0 -6 -7 -11 -15 -11 -8 0 -15 -4 -15 -10
0 -5 -9 -10 -20 -10 -10 0 -23 -6 -27 -14 -4 -8 -17 -14 -28 -13 -12 1 -19 -3
-17 -11 1 -8 -3 -12 -10 -9 -7 2 -24 0 -36 -5 -13 -4 -29 -5 -35 -1 -16 10
-47 11 -47 2 0 -6 -23 -5 -40 1 -3 1 -9 2 -14 1 -5 -1 -6 4 -3 12 4 10 -3 14
-26 13 -22 -2 -41 6 -60 24 -15 14 -35 25 -45 25 -13 0 -17 10 -19 50 -2 28
-4 62 -6 78 -2 15 0 27 4 27 7 0 4 40 -6 68 -2 6 0 12 5 12 8 0 5 38 -5 68 -2
6 0 12 5 12 8 0 5 38 -5 68 -2 6 -1 12 4 12 11 0 1 83 -11 91 -5 3 -27 5 -49
4 -27 -1 -39 2 -39 12 0 9 -15 13 -49 13 -34 0 -51 4 -55 15 -5 13 -9 12 -30
-6 -14 -12 -22 -27 -19 -32 4 -6 0 -8 -10 -4 -10 3 -17 2 -17 -3 0 -14 -37
-50 -44 -42 -3 3 -6 0 -6 -6 0 -15 -32 -46 -51 -50 -8 -2 -21 -9 -29 -16 -8
-8 -21 -11 -27 -9 -7 3 -16 -2 -19 -11 -8 -22 -179 -24 -187 -2 -3 7 -18 12
-33 12 -28 -2 -64 24 -64 45 0 5 -4 7 -10 4 -5 -3 -11 0 -12 7 0 7 -2 18 -2
23 -1 6 -5 16 -9 23 -5 6 -4 12 1 12 9 0 8 47 -2 57 -3 3 -1 13 4 22 5 10 5
23 0 31 -5 8 -5 21 0 30 5 9 5 22 0 30 -5 8 -5 21 0 30 5 9 5 22 0 30 -5 8 -5
21 0 30 5 9 5 22 0 30 -5 8 -5 21 0 30 5 9 5 22 0 30 -5 8 -5 19 0 25 6 7 2
15 -11 23 -10 7 -19 8 -19 3 0 -13 -63 -2 -72 12 -4 7 -24 12 -45 13 -58 1
-65 3 -58 14 3 6 -1 10 -9 10 -9 0 -16 -7 -16 -15 0 -8 -5 -15 -10 -15 -13 0
-89 -78 -83 -84 3 -2 -5 -7 -17 -11 -12 -4 -19 -12 -17 -19 4 -9 -3 -12 -19
-10 -13 1 -24 -2 -24 -6 0 -5 -16 -14 -35 -20 -19 -6 -35 -15 -35 -19 0 -4
-36 -7 -81 -6 -59 0 -84 5 -92 15 -7 9 -23 14 -36 12 -14 -2 -30 2 -35 10 -6
8 -23 22 -38 32 -20 13 -27 14 -31 4 -3 -7 -6 -3 -6 10 -1 12 -7 22 -16 22 -8
0 -15 7 -15 15 0 8 -6 15 -12 15 -7 0 -26 16 -43 35 -33 39 -40 42 -48 20z"/>
</g>
</svg>
